<svg xmlns="http://www.w3.org/2000/svg" viewBox="0 0 64 64">
  <defs>
    <linearGradient id="bg" x1="0" y1="1" x2="1" y2="0">
      <stop offset="0" stop-color="#050f24"/>
      <stop offset="1" stop-color="#12284e"/>
    </linearGradient>
    <radialGradient id="glow" cx="0.5" cy="0.5" r="0.5">
      <stop offset="0" stop-color="#ffffff" stop-opacity="0.5"/>
      <stop offset="1" stop-color="#ffffff" stop-opacity="0"/>
    </radialGradient>
  </defs>
  <rect width="64" height="64" rx="14" fill="url(#bg)"/>
  <circle cx="32" cy="32" r="27" fill="none" stroke="#ffffff" stroke-opacity="0.45" stroke-width="1.6"/>
  <circle cx="32" cy="32" r="17" fill="none" stroke="#ffffff" stroke-opacity="0.22" stroke-width="1"/>
  <circle cx="32" cy="32" r="14" fill="url(#glow)" opacity="0.55"/>
  <g fill="#eef4ff" shape-rendering="crispEdges" transform="translate(21, 24) scale(2)">
    <rect x="2" y="0" width="1" height="1"/><rect x="8" y="0" width="1" height="1"/>
    <rect x="3" y="1" width="1" height="1"/><rect x="7" y="1" width="1" height="1"/>
    <rect x="2" y="2" width="7" height="1"/>
    <rect x="1" y="3" width="2" height="1"/><rect x="4" y="3" width="3" height="1"/><rect x="8" y="3" width="2" height="1"/>
    <rect x="0" y="4" width="11" height="1"/>
    <rect x="0" y="5" width="1" height="1"/><rect x="2" y="5" width="7" height="1"/><rect x="10" y="5" width="1" height="1"/>
    <rect x="0" y="6" width="1" height="1"/><rect x="2" y="6" width="1" height="1"/><rect x="8" y="6" width="1" height="1"/><rect x="10" y="6" width="1" height="1"/>
    <rect x="3" y="7" width="2" height="1"/><rect x="6" y="7" width="2" height="1"/>
  </g>
</svg>
